<svg xmlns="http://www.w3.org/2000/svg" width="40" height="40" viewBox="0 0 24 24" id="brand-dot-ai">
  <path fill="white" d="M11.905 24a12.117 12.117 0 0 1-6.131-1.72 12.128 12.128 0 0 1-4.027-4.038 11.962 11.962 0 0 1-1.722-5.494A12.28 12.28 0 0 1 0 12.002 12.034 12.034 0 0 1 1.747 5.76 11.98 11.98 0 0 1 11.918 0h.141C18.312.039 23.51 4.921 23.95 11.139a.435.435 0 0 1 .034.139c.016.24.016.497.016.738 0 .21-.013.434-.024.648-.398 6.353-5.621 11.294-11.895 11.336h-.176zm.151-23h-.134a10.977 10.977 0 0 0-5.61 1.581 11.063 11.063 0 0 0-3.711 3.7A11.035 11.035 0 0 0 1 12.002c0 .229.01.458.023.685a10.964 10.964 0 0 0 1.578 5.035 11.144 11.144 0 0 0 3.69 3.702A11.117 11.117 0 0 0 11.907 23h.17c5.747-.039 10.534-4.568 10.895-10.311.016-.277.028-.481.028-.673 0-.181 0-.374-.008-.559a.42.42 0 0 1-.032-.136C22.611 5.569 17.821 1.036 12.056 1zm-1.448 21.323c-4.664-.654-8.3-4.309-8.929-8.894a10.228 10.228 0 0 1 .001-2.858c.628-4.578 4.259-8.231 8.829-8.885a.433.433 0 0 1 .114-.003l.11.01c1.676.089 1.826 1.74 1.769 3.169v3.651c-.009 1.344.773 2.611 1.534 3.06a.5.5 0 0 1-.003.863c-.713.415-1.541 1.463-1.532 3.05v3.681c.059 1.417-.092 3.076-1.79 3.152a1.773 1.773 0 0 0-.103.004zm-.014-19.639c-4.105.612-7.359 3.904-7.924 8.024v.002A9.068 9.068 0 0 0 2.579 12c0 .435.03.87.091 1.291.568 4.147 3.855 7.451 7.993 8.037.369-.025.924-.05.838-2.141v-3.693c-.01-1.615.693-2.807 1.458-3.5-.785-.756-1.466-2.058-1.457-3.484V4.841c.085-2.101-.472-2.131-.839-2.151l-.069-.006zM2.175 10.64h.01-.01z"></path>
</svg>