<svg xmlns="http://www.w3.org/2000/svg" enable-background="new 0 2 24 24" viewBox="0 2 20 40" id="brand-dot-ai"><path fill="#212121" d="M0.025,12.749c0.122,2.004,0.733,3.876,1.723,5.494c1,1.649,2.384,3.032,4.023,4.036c1.798,1.075,3.897,1.706,6.13,1.721h0.179c6.343-0.043,11.497-4.994,11.889-11.248C23.984,12.512,24,12.256,24,12.017s0-0.495-0.016-0.734l-0.027-0.022l-0.001,0.002C23.578,5.002,18.402,0.039,12.061,0h-0.142c-2.24,0.016-4.336,0.641-6.124,1.725C4.143,2.724,2.752,4.111,1.747,5.761C0.76,7.377,0.15,9.251,0.022,11.255C0.008,11.502,0,11.75,0,12.002C0,12.253,0.01,12.503,0.025,12.749L0.025,12.749z M1.748,10.581c0.625-4.563,4.218-8.176,8.769-8.826l0.114,0.01c0.8,0.043,1.465,0.43,1.37,2.766v3.831c-0.01,1.574,0.895,3.074,1.856,3.643c-0.962,0.561-1.867,1.876-1.857,3.637v0.005v3.833c0.096,2.341-0.57,2.732-1.37,2.767l-0.1,0.005c-4.556-0.646-8.157-4.26-8.783-8.83c-0.066-0.464-0.1-0.938-0.1-1.421C1.648,11.519,1.682,11.046,1.748,10.581L1.748,10.581z"></path><path fill="#3E3E3E" d="M12.061,0h-0.142c-2.24,0.016-4.336,0.641-6.124,1.725C4.143,2.724,2.752,4.111,1.747,5.761C0.76,7.377,0.15,9.251,0.022,11.255C0.008,11.501,0,11.748,0,12h1.648c0,0,0,0,0,0c0-0.48,0.034-0.954,0.1-1.419c0.625-4.563,4.218-8.176,8.769-8.826l0.114,0.01c0.8,0.043,1.465,0.43,1.37,2.766v3.831c-0.01,1.571,0.891,3.068,1.85,3.639H24c0-0.234,0-0.484-0.016-0.718l-0.027-0.022l-0.001,0.002C23.578,5.002,18.402,0.039,12.061,0L12.061,0z"></path><path fill="#DEDEDE" d="M13.852,12H1.648c0,0.482,0.034,0.956,0.1,1.421c0.626,4.569,4.227,8.184,8.783,8.83l0.1-0.005c0.8-0.036,1.466-0.426,1.37-2.767v-3.833V15.64c-0.01-1.761,0.895-3.076,1.857-3.637C13.856,12.002,13.854,12.001,13.852,12L13.852,12z"></path></svg>
